{
	"patcher" : 	{
		"fileversion" : 1,
		"appversion" : 		{
			"major" : 7,
			"minor" : 2,
			"revision" : 3,
			"architecture" : "x86",
			"modernui" : 1
		}
,
		"rect" : [ 2631.0, 85.0, 873.0, 920.0 ],
		"bgcolor" : [ 0.282745, 0.287843, 0.298039, 1.0 ],
		"bglocked" : 0,
		"openinpresentation" : 1,
		"default_fontsize" : 12.0,
		"default_fontface" : 0,
		"default_fontname" : "Arial",
		"gridonopen" : 1,
		"gridsize" : [ 15.0, 15.0 ],
		"gridsnaponopen" : 1,
		"objectsnaponopen" : 1,
		"statusbarvisible" : 2,
		"toolbarvisible" : 1,
		"lefttoolbarpinned" : 0,
		"toptoolbarpinned" : 0,
		"righttoolbarpinned" : 0,
		"bottomtoolbarpinned" : 0,
		"toolbars_unpinned_last_save" : 0,
		"tallnewobj" : 0,
		"boxanimatetime" : 200,
		"enablehscroll" : 1,
		"enablevscroll" : 1,
		"devicewidth" : 0.0,
		"description" : "",
		"digest" : "",
		"tags" : "",
		"style" : "",
		"subpatcher_template" : "",
		"boxes" : [ 			{
				"box" : 				{
					"id" : "obj-2",
					"maxclass" : "newobj",
					"numinlets" : 12,
					"numoutlets" : 1,
					"outlettype" : [ "" ],
					"patching_rect" : [ 42.772888, 629.0, 412.0, 22.0 ],
					"style" : "",
					"text" : "pak 0. 0 0. 0 0. 0. 0. 0. 0. 0. 0. 0"
				}

			}
, 			{
				"box" : 				{
					"comment" : "Unscaled Signal",
					"id" : "obj-36",
					"maxclass" : "inlet",
					"numinlets" : 0,
					"numoutlets" : 1,
					"outlettype" : [ "" ],
					"patching_rect" : [ 182.0, 733.333313, 30.0, 30.0 ],
					"style" : ""
				}

			}
, 			{
				"box" : 				{
					"comment" : "UIParams",
					"id" : "obj-34",
					"maxclass" : "outlet",
					"numinlets" : 1,
					"numoutlets" : 0,
					"patching_rect" : [ 42.772888, 671.40979, 30.0, 30.0 ],
					"style" : ""
				}

			}
, 			{
				"box" : 				{
					"id" : "obj-18",
					"maxclass" : "newobj",
					"numinlets" : 1,
					"numoutlets" : 4,
					"outlettype" : [ "", "", "", "" ],
					"patching_rect" : [ 195.0, 251.0, 58.0, 22.0 ],
					"restore" : 					{
						"Depth" : [ 100.0 ],
						"FreqRate" : [ 4.0 ],
						"Hold" : [ 0.0 ],
						"Jitter" : [ 0.0 ],
						"Offset" : [ 0.0 ],
						"Phase" : [ 0.0 ],
						"Phase-Inversion" : [ 0.0 ],
						"Smooth" : [ 0.0 ],
						"SyncRate" : [ 0.0 ],
						"TimeMode" : [ 1.0 ],
						"live.menu[1]" : [ 0.0 ],
						"re-trigger" : [ 0.0 ]
					}
,
					"style" : "",
					"text" : "autopattr",
					"varname" : "u035006045"
				}

			}
, 			{
				"box" : 				{
					"id" : "obj-6",
					"maxclass" : "newobj",
					"numinlets" : 1,
					"numoutlets" : 1,
					"outlettype" : [ "bang" ],
					"patching_rect" : [ 321.0, 1012.0, 58.0, 22.0 ],
					"style" : "",
					"text" : "loadbang"
				}

			}
, 			{
				"box" : 				{
					"fontname" : "Arial",
					"fontsize" : 10.0,
					"id" : "obj-1",
					"maxclass" : "message",
					"numinlets" : 2,
					"numoutlets" : 1,
					"outlettype" : [ "" ],
					"patching_rect" : [ 321.0, 1043.5, 63.0, 20.0 ],
					"style" : "",
					"text" : "line_width 2"
				}

			}
, 			{
				"box" : 				{
					"fontname" : "Arial Bold",
					"fontsize" : 9.0,
					"id" : "obj-14",
					"maxclass" : "newobj",
					"numinlets" : 2,
					"numoutlets" : 2,
					"outlettype" : [ "jit_matrix", "" ],
					"patching_rect" : [ 113.5, 1043.5, 99.0, 19.0 ],
					"style" : "",
					"text" : "jit.op @op * @val 0.5"
				}

			}
, 			{
				"box" : 				{
					"fontname" : "Arial Bold",
					"fontsize" : 9.0,
					"id" : "obj-84",
					"maxclass" : "message",
					"numinlets" : 2,
					"numoutlets" : 1,
					"outlettype" : [ "" ],
					"patching_rect" : [ 232.5, 928.5, 65.0, 19.0 ],
					"style" : "",
					"text" : "framesize $1"
				}

			}
, 			{
				"box" : 				{
					"fontname" : "Arial",
					"fontsize" : 10.0,
					"id" : "obj-15",
					"maxclass" : "comment",
					"numinlets" : 1,
					"numoutlets" : 0,
					"patching_rect" : [ 188.0, 905.0, 158.0, 18.0 ],
					"style" : "",
					"text" : "<<< careful, it crashes when zero"
				}

			}
, 			{
				"box" : 				{
					"fontname" : "Arial Bold",
					"fontsize" : 9.0,
					"id" : "obj-100",
					"maxclass" : "newobj",
					"numinlets" : 1,
					"numoutlets" : 2,
					"outlettype" : [ "bang", "" ],
					"patching_rect" : [ 173.5, 986.0, 321.0, 19.0 ],
					"style" : "",
					"text" : "jit.gl.render #0display @drawto #0display @erase_color 0.094 0.118 0.1 1"
				}

			}
, 			{
				"box" : 				{
					"fontname" : "Arial Bold",
					"fontsize" : 9.0,
					"id" : "obj-101",
					"maxclass" : "newobj",
					"numinlets" : 1,
					"numoutlets" : 3,
					"outlettype" : [ "bang", "bang", "erase" ],
					"patching_rect" : [ 94.5, 928.5, 56.0, 19.0 ],
					"style" : "",
					"text" : "t b b erase"
				}

			}
, 			{
				"box" : 				{
					"fontname" : "Arial Bold",
					"fontsize" : 9.0,
					"id" : "obj-17",
					"maxclass" : "newobj",
					"numinlets" : 1,
					"numoutlets" : 2,
					"outlettype" : [ "jit_matrix", "" ],
					"patching_rect" : [ 113.5, 1079.5, 443.0, 19.0 ],
					"style" : "",
					"text" : "jit.gl.graph #0display @circpoints 1 @position 0 -0.5 0 @antialias 1 @color 0.278 0.839 1 @scale 2 1 1"
				}

			}
, 			{
				"box" : 				{
					"fontname" : "Arial Bold",
					"fontsize" : 9.0,
					"id" : "obj-66",
					"maxclass" : "newobj",
					"numinlets" : 2,
					"numoutlets" : 1,
					"outlettype" : [ "bang" ],
					"patching_rect" : [ 94.5, 905.0, 98.0, 19.0 ],
					"style" : "",
					"text" : "qmetro 30 @active 1"
				}

			}
, 			{
				"box" : 				{
					"fontname" : "Arial Bold",
					"fontsize" : 9.0,
					"id" : "obj-64",
					"maxclass" : "newobj",
					"numinlets" : 1,
					"numoutlets" : 2,
					"outlettype" : [ "jit_matrix", "" ],
					"patching_rect" : [ 113.5, 1017.0, 178.0, 19.0 ],
					"style" : "",
					"text" : "jit.catch~ 1 @mode 2 @downsample 50"
				}

			}
, 			{
				"box" : 				{
					"id" : "obj-12",
					"maxclass" : "newobj",
					"numinlets" : 1,
					"numoutlets" : 1,
					"outlettype" : [ "bang" ],
					"patching_rect" : [ 530.83374, 604.90979, 60.0, 22.0 ],
					"style" : "",
					"text" : "loadbang"
				}

			}
, 			{
				"box" : 				{
					"id" : "obj-8",
					"maxclass" : "newobj",
					"numinlets" : 1,
					"numoutlets" : 1,
					"outlettype" : [ "bang" ],
					"patching_rect" : [ 640.0, 612.0, 60.0, 22.0 ],
					"style" : "",
					"text" : "loadbang"
				}

			}
, 			{
				"box" : 				{
					"fontname" : "Arial Bold",
					"fontsize" : 10.0,
					"id" : "obj-13",
					"maxclass" : "newobj",
					"numinlets" : 3,
					"numoutlets" : 1,
					"outlettype" : [ "signal" ],
					"patcher" : 					{
						"fileversion" : 1,
						"appversion" : 						{
							"major" : 7,
							"minor" : 2,
							"revision" : 3,
							"architecture" : "x86",
							"modernui" : 1
						}
,
						"rect" : [ 765.0, 197.0, 640.0, 389.0 ],
						"bglocked" : 0,
						"openinpresentation" : 0,
						"default_fontsize" : 10.0,
						"default_fontface" : 0,
						"default_fontname" : "Arial Bold",
						"gridonopen" : 1,
						"gridsize" : [ 8.0, 8.0 ],
						"gridsnaponopen" : 1,
						"objectsnaponopen" : 1,
						"statusbarvisible" : 2,
						"toolbarvisible" : 1,
						"lefttoolbarpinned" : 0,
						"toptoolbarpinned" : 0,
						"righttoolbarpinned" : 0,
						"bottomtoolbarpinned" : 0,
						"toolbars_unpinned_last_save" : 0,
						"tallnewobj" : 0,
						"boxanimatetime" : 200,
						"enablehscroll" : 1,
						"enablevscroll" : 1,
						"devicewidth" : 0.0,
						"description" : "",
						"digest" : "",
						"tags" : "",
						"style" : "",
						"subpatcher_template" : "",
						"boxes" : [ 							{
								"box" : 								{
									"fontname" : "Arial Bold",
									"fontsize" : 10.0,
									"id" : "obj-34",
									"maxclass" : "newobj",
									"numinlets" : 3,
									"numoutlets" : 1,
									"outlettype" : [ "signal" ],
									"patching_rect" : [ 50.0, 287.0, 56.0, 20.0 ],
									"style" : "",
									"text" : "clip~ 0. 1."
								}

							}
, 							{
								"box" : 								{
									"fontname" : "Arial Bold",
									"fontsize" : 10.0,
									"id" : "obj-41",
									"maxclass" : "newobj",
									"numinlets" : 1,
									"numoutlets" : 2,
									"outlettype" : [ "bang", "float" ],
									"patching_rect" : [ 61.75, 127.0, 32.5, 20.0 ],
									"style" : "",
									"text" : "t b f"
								}

							}
, 							{
								"box" : 								{
									"fontname" : "Arial Bold",
									"fontsize" : 10.0,
									"id" : "obj-40",
									"maxclass" : "newobj",
									"numinlets" : 2,
									"numoutlets" : 1,
									"outlettype" : [ "float" ],
									"patching_rect" : [ 61.75, 100.0, 32.5, 20.0 ],
									"style" : "",
									"text" : "/ 2."
								}

							}
, 							{
								"box" : 								{
									"fontname" : "Arial Bold",
									"fontsize" : 10.0,
									"id" : "obj-38",
									"maxclass" : "newobj",
									"numinlets" : 2,
									"numoutlets" : 1,
									"outlettype" : [ "float" ],
									"patching_rect" : [ 50.0, 158.756287, 44.25, 20.0 ],
									"style" : "",
									"text" : "- 0."
								}

							}
, 							{
								"box" : 								{
									"fontname" : "Arial Bold",
									"fontsize" : 10.0,
									"id" : "obj-35",
									"maxclass" : "newobj",
									"numinlets" : 1,
									"numoutlets" : 1,
									"outlettype" : [ "signal" ],
									"patching_rect" : [ 130.75, 158.756287, 31.0, 20.0 ],
									"style" : "",
									"text" : "sig~"
								}

							}
, 							{
								"box" : 								{
									"fontname" : "Arial Bold",
									"fontsize" : 10.0,
									"id" : "obj-13",
									"maxclass" : "newobj",
									"numinlets" : 1,
									"numoutlets" : 1,
									"outlettype" : [ "signal" ],
									"patching_rect" : [ 50.0, 195.756287, 31.0, 20.0 ],
									"style" : "",
									"text" : "sig~"
								}

							}
, 							{
								"box" : 								{
									"fontname" : "Arial Bold",
									"fontsize" : 10.0,
									"id" : "obj-11",
									"maxclass" : "newobj",
									"numinlets" : 2,
									"numoutlets" : 1,
									"outlettype" : [ "signal" ],
									"patching_rect" : [ 50.0, 228.243713, 86.25, 20.0 ],
									"style" : "",
									"text" : "+~"
								}

							}
, 							{
								"box" : 								{
									"fontname" : "Arial Bold",
									"fontsize" : 10.0,
									"id" : "obj-9",
									"maxclass" : "newobj",
									"numinlets" : 2,
									"numoutlets" : 1,
									"outlettype" : [ "signal" ],
									"patching_rect" : [ 117.25, 186.756287, 32.5, 20.0 ],
									"style" : "",
									"text" : "*~"
								}

							}
, 							{
								"box" : 								{
									"comment" : "",
									"id" : "obj-36",
									"maxclass" : "inlet",
									"numinlets" : 0,
									"numoutlets" : 1,
									"outlettype" : [ "float" ],
									"patching_rect" : [ 85.375, 34.0, 25.0, 25.0 ],
									"style" : ""
								}

							}
, 							{
								"box" : 								{
									"comment" : "",
									"id" : "obj-37",
									"maxclass" : "inlet",
									"numinlets" : 0,
									"numoutlets" : 1,
									"outlettype" : [ "float" ],
									"patching_rect" : [ 50.0, 34.0, 25.0, 25.0 ],
									"style" : ""
								}

							}
, 							{
								"box" : 								{
									"comment" : "",
									"id" : "obj-44",
									"maxclass" : "inlet",
									"numinlets" : 0,
									"numoutlets" : 1,
									"outlettype" : [ "" ],
									"patching_rect" : [ 117.25, 34.0, 25.0, 25.0 ],
									"style" : ""
								}

							}
, 							{
								"box" : 								{
									"comment" : "",
									"id" : "obj-46",
									"maxclass" : "outlet",
									"numinlets" : 1,
									"numoutlets" : 0,
									"patching_rect" : [ 50.0, 343.0, 25.0, 25.0 ],
									"style" : ""
								}

							}
 ],
						"lines" : [ 							{
								"patchline" : 								{
									"destination" : [ "obj-34", 0 ],
									"disabled" : 0,
									"hidden" : 0,
									"source" : [ "obj-11", 0 ]
								}

							}
, 							{
								"patchline" : 								{
									"destination" : [ "obj-11", 0 ],
									"disabled" : 0,
									"hidden" : 0,
									"source" : [ "obj-13", 0 ]
								}

							}
, 							{
								"patchline" : 								{
									"destination" : [ "obj-46", 0 ],
									"disabled" : 0,
									"hidden" : 0,
									"source" : [ "obj-34", 0 ]
								}

							}
, 							{
								"patchline" : 								{
									"destination" : [ "obj-9", 1 ],
									"disabled" : 0,
									"hidden" : 0,
									"source" : [ "obj-35", 0 ]
								}

							}
, 							{
								"patchline" : 								{
									"destination" : [ "obj-35", 0 ],
									"disabled" : 0,
									"hidden" : 0,
									"source" : [ "obj-36", 0 ]
								}

							}
, 							{
								"patchline" : 								{
									"destination" : [ "obj-40", 0 ],
									"disabled" : 0,
									"hidden" : 0,
									"source" : [ "obj-36", 0 ]
								}

							}
, 							{
								"patchline" : 								{
									"destination" : [ "obj-38", 0 ],
									"disabled" : 0,
									"hidden" : 0,
									"source" : [ "obj-37", 0 ]
								}

							}
, 							{
								"patchline" : 								{
									"destination" : [ "obj-13", 0 ],
									"disabled" : 0,
									"hidden" : 0,
									"source" : [ "obj-38", 0 ]
								}

							}
, 							{
								"patchline" : 								{
									"destination" : [ "obj-41", 0 ],
									"disabled" : 0,
									"hidden" : 0,
									"source" : [ "obj-40", 0 ]
								}

							}
, 							{
								"patchline" : 								{
									"destination" : [ "obj-38", 1 ],
									"disabled" : 0,
									"hidden" : 0,
									"source" : [ "obj-41", 1 ]
								}

							}
, 							{
								"patchline" : 								{
									"destination" : [ "obj-38", 0 ],
									"disabled" : 0,
									"hidden" : 0,
									"source" : [ "obj-41", 0 ]
								}

							}
, 							{
								"patchline" : 								{
									"destination" : [ "obj-9", 0 ],
									"disabled" : 0,
									"hidden" : 0,
									"source" : [ "obj-44", 0 ]
								}

							}
, 							{
								"patchline" : 								{
									"destination" : [ "obj-11", 1 ],
									"disabled" : 0,
									"hidden" : 0,
									"source" : [ "obj-9", 0 ]
								}

							}
 ]
					}
,
					"patching_rect" : [ 60.0, 821.0, 141.0, 20.0 ],
					"saved_object_attributes" : 					{
						"description" : "",
						"digest" : "",
						"fontname" : "Arial Bold",
						"fontsize" : 10.0,
						"globalpatchername" : "",
						"style" : "",
						"tags" : ""
					}
,
					"style" : "",
					"text" : "p signalScalingDisplay"
				}

			}
, 			{
				"box" : 				{
					"fontname" : "Arial Bold",
					"fontsize" : 10.0,
					"id" : "obj-16",
					"maxclass" : "newobj",
					"numinlets" : 1,
					"numoutlets" : 1,
					"outlettype" : [ "bang" ],
					"patching_rect" : [ 397.75, 204.5, 23.0, 20.0 ],
					"style" : "",
					"text" : "t b"
				}

			}
, 			{
				"box" : 				{
					"fontname" : "Arial Bold",
					"fontsize" : 10.0,
					"id" : "obj-9",
					"maxclass" : "newobj",
					"numinlets" : 0,
					"numoutlets" : 1,
					"outlettype" : [ "" ],
					"patcher" : 					{
						"fileversion" : 1,
						"appversion" : 						{
							"major" : 7,
							"minor" : 2,
							"revision" : 3,
							"architecture" : "x86",
							"modernui" : 1
						}
,
						"rect" : [ 42.0, 85.0, 545.0, 405.0 ],
						"bglocked" : 0,
						"openinpresentation" : 0,
						"default_fontsize" : 12.0,
						"default_fontface" : 0,
						"default_fontname" : "Arial",
						"gridonopen" : 1,
						"gridsize" : [ 15.0, 15.0 ],
						"gridsnaponopen" : 1,
						"objectsnaponopen" : 1,
						"statusbarvisible" : 2,
						"toolbarvisible" : 1,
						"lefttoolbarpinned" : 0,
						"toptoolbarpinned" : 0,
						"righttoolbarpinned" : 0,
						"bottomtoolbarpinned" : 0,
						"toolbars_unpinned_last_save" : 0,
						"tallnewobj" : 0,
						"boxanimatetime" : 200,
						"enablehscroll" : 1,
						"enablevscroll" : 1,
						"devicewidth" : 0.0,
						"description" : "",
						"digest" : "",
						"tags" : "",
						"style" : "",
						"subpatcher_template" : "",
						"boxes" : [ 							{
								"box" : 								{
									"id" : "obj-2",
									"maxclass" : "newobj",
									"numinlets" : 1,
									"numoutlets" : 1,
									"outlettype" : [ "bang" ],
									"patching_rect" : [ 285.0, 39.0, 60.0, 22.0 ],
									"style" : "",
									"text" : "loadbang"
								}

							}
, 							{
								"box" : 								{
									"comment" : "",
									"id" : "obj-1",
									"maxclass" : "outlet",
									"numinlets" : 1,
									"numoutlets" : 0,
									"patching_rect" : [ 15.0, 169.0, 18.0, 18.0 ],
									"style" : ""
								}

							}
, 							{
								"box" : 								{
									"fontname" : "Arial Bold",
									"fontsize" : 10.0,
									"id" : "obj-16",
									"maxclass" : "message",
									"numinlets" : 2,
									"numoutlets" : 1,
									"outlettype" : [ "" ],
									"patching_rect" : [ 138.0, 93.0, 150.0, 20.0 ],
									"style" : "",
									"text" : "0.137255 0.145098 0.160784 1"
								}

							}
, 							{
								"box" : 								{
									"fontname" : "Arial Bold",
									"fontsize" : 10.0,
									"id" : "obj-24",
									"maxclass" : "newobj",
									"numinlets" : 2,
									"numoutlets" : 2,
									"outlettype" : [ "", "" ],
									"patching_rect" : [ 15.0, 108.0, 92.0, 20.0 ],
									"style" : "",
									"text" : "route surface_bg"
								}

							}
, 							{
								"box" : 								{
									"fontname" : "Arial Bold",
									"fontsize" : 10.0,
									"id" : "obj-26",
									"maxclass" : "newobj",
									"numinlets" : 2,
									"numoutlets" : 1,
									"outlettype" : [ "" ],
									"patching_rect" : [ 15.0, 139.0, 142.0, 20.0 ],
									"style" : "",
									"text" : "vexpr ($f1 * 0.35 + $f2 *0.65)"
								}

							}
, 							{
								"box" : 								{
									"fontname" : "Arial Bold",
									"fontsize" : 10.0,
									"id" : "obj-29",
									"maxclass" : "newobj",
									"numinlets" : 1,
									"numoutlets" : 2,
									"outlettype" : [ "", "bang" ],
									"patching_rect" : [ 15.0, 80.0, 60.0, 20.0 ],
									"style" : "",
									"text" : "live.colors"
								}

							}
, 							{
								"box" : 								{
									"fontname" : "Arial Bold",
									"fontsize" : 10.0,
									"id" : "obj-30",
									"maxclass" : "message",
									"numinlets" : 2,
									"numoutlets" : 1,
									"outlettype" : [ "" ],
									"patching_rect" : [ 15.0, 57.0, 64.0, 20.0 ],
									"style" : "",
									"text" : "surface_bg"
								}

							}
, 							{
								"box" : 								{
									"fontname" : "Arial Bold Italic",
									"fontsize" : 10.0,
									"id" : "obj-32",
									"maxclass" : "comment",
									"numinlets" : 1,
									"numoutlets" : 0,
									"patching_rect" : [ 57.0, 109.0, 17.0, 18.0 ],
									"style" : "",
									"text" : "R",
									"textcolor" : [ 0.3, 0.34, 0.4, 1.0 ]
								}

							}
, 							{
								"box" : 								{
									"fontname" : "Arial Bold",
									"fontsize" : 10.0,
									"id" : "obj-33",
									"maxclass" : "comment",
									"numinlets" : 1,
									"numoutlets" : 0,
									"patching_rect" : [ 15.0, 15.0, 112.0, 18.0 ],
									"style" : "",
									"text" : "colorize background"
								}

							}
 ],
						"lines" : [ 							{
								"patchline" : 								{
									"destination" : [ "obj-26", 1 ],
									"disabled" : 0,
									"hidden" : 0,
									"source" : [ "obj-16", 0 ]
								}

							}
, 							{
								"patchline" : 								{
									"destination" : [ "obj-16", 0 ],
									"disabled" : 0,
									"hidden" : 0,
									"source" : [ "obj-2", 0 ]
								}

							}
, 							{
								"patchline" : 								{
									"destination" : [ "obj-30", 0 ],
									"disabled" : 0,
									"hidden" : 0,
									"source" : [ "obj-2", 0 ]
								}

							}
, 							{
								"patchline" : 								{
									"destination" : [ "obj-26", 0 ],
									"disabled" : 0,
									"hidden" : 0,
									"source" : [ "obj-24", 0 ]
								}

							}
, 							{
								"patchline" : 								{
									"destination" : [ "obj-1", 0 ],
									"disabled" : 0,
									"hidden" : 0,
									"source" : [ "obj-26", 0 ]
								}

							}
, 							{
								"patchline" : 								{
									"destination" : [ "obj-24", 0 ],
									"disabled" : 0,
									"hidden" : 0,
									"source" : [ "obj-29", 0 ]
								}

							}
, 							{
								"patchline" : 								{
									"destination" : [ "obj-30", 0 ],
									"disabled" : 0,
									"hidden" : 0,
									"midpoints" : [ 65.5, 103.0, 100.0, 103.0, 100.0, 43.0, 24.5, 43.0 ],
									"source" : [ "obj-29", 1 ]
								}

							}
, 							{
								"patchline" : 								{
									"destination" : [ "obj-29", 0 ],
									"disabled" : 0,
									"hidden" : 0,
									"source" : [ "obj-30", 0 ]
								}

							}
 ]
					}
,
					"patching_rect" : [ 676.0, 539.5, 77.0, 20.0 ],
					"saved_object_attributes" : 					{
						"description" : "",
						"digest" : "",
						"globalpatchername" : "",
						"style" : "",
						"tags" : ""
					}
,
					"style" : "",
					"text" : "p background"
				}

			}
, 			{
				"box" : 				{
					"fontname" : "Arial Bold",
					"fontsize" : 10.0,
					"id" : "obj-19",
					"maxclass" : "newobj",
					"numinlets" : 2,
					"numoutlets" : 2,
					"outlettype" : [ "bang", "" ],
					"patching_rect" : [ 360.0, 169.0, 33.0, 20.0 ],
					"style" : "",
					"text" : "sel 1"
				}

			}
, 			{
				"box" : 				{
					"fontname" : "Arial Bold",
					"fontsize" : 10.0,
					"id" : "obj-31",
					"maxclass" : "newobj",
					"numinlets" : 1,
					"numoutlets" : 1,
					"outlettype" : [ "float" ],
					"patching_rect" : [ 239.0, 838.5, 21.0, 20.0 ],
					"style" : "",
					"text" : "t f"
				}

			}
, 			{
				"box" : 				{
					"fontname" : "Arial Bold",
					"fontsize" : 10.0,
					"id" : "obj-23",
					"maxclass" : "newobj",
					"numinlets" : 1,
					"numoutlets" : 1,
					"outlettype" : [ "float" ],
					"patching_rect" : [ 121.0, 838.5, 21.0, 20.0 ],
					"style" : "",
					"text" : "t f"
				}

			}
, 			{
				"box" : 				{
					"fontname" : "Arial Bold",
					"fontsize" : 10.0,
					"id" : "obj-11",
					"maxclass" : "newobj",
					"numinlets" : 0,
					"numoutlets" : 1,
					"outlettype" : [ "" ],
					"patching_rect" : [ 239.0, 796.0, 52.0, 20.0 ],
					"style" : "",
					"text" : "r ---freq2"
				}

			}
, 			{
				"box" : 				{
					"fontname" : "Arial Bold",
					"fontsize" : 10.0,
					"id" : "obj-4",
					"maxclass" : "newobj",
					"numinlets" : 2,
					"numoutlets" : 1,
					"outlettype" : [ "signal" ],
					"patching_rect" : [ 60.0, 865.0, 32.5, 20.0 ],
					"style" : "",
					"text" : "*~ 2."
				}

			}
, 			{
				"box" : 				{
					"fontname" : "Arial Bold",
					"fontsize" : 10.0,
					"id" : "obj-25",
					"maxclass" : "newobj",
					"numinlets" : 4,
					"numoutlets" : 0,
					"patching_rect" : [ 676.0, 565.5, 59.5, 20.0 ],
					"style" : "",
					"text" : "bgcolor"
				}

			}
, 			{
				"box" : 				{
					"bordercolor" : [ 1.0, 1.0, 1.0, 1.0 ],
					"dstrect" : [ 0, 0, 160, 120 ],
					"id" : "obj-102",
					"interp" : 1,
					"maxclass" : "jit.pwindow",
					"name" : "#0display",
					"numinlets" : 1,
					"numoutlets" : 2,
					"outlettype" : [ "", "" ],
					"patching_rect" : [ 640.0, 687.0, 150.0, 68.0 ],
					"presentation" : 1,
					"presentation_rect" : [ 50.841095, 10.984207, 128.765915, 49.295029 ],
					"srcrect" : [ 0, 0, 160, 120 ],
					"varname" : "#0display"
				}

			}
, 			{
				"box" : 				{
					"angle" : 0.0,
					"bgcolor" : [ 0.094118, 0.117647, 0.137255, 1.0 ],
					"id" : "obj-7",
					"maxclass" : "panel",
					"mode" : 0,
					"numinlets" : 1,
					"numoutlets" : 0,
					"patching_rect" : [ 640.0, 150.5, 128.0, 128.0 ],
					"proportion" : 0.39,
					"style" : ""
				}

			}
, 			{
				"box" : 				{
					"activebgcolor" : [ 0.278431, 0.839216, 1.0, 1.0 ],
					"activebgoncolor" : [ 0.498039, 0.52549, 0.576471, 1.0 ],
					"annotation" : "LFO phase re-trigger, disabled in \"Sync\" mode.",
					"id" : "obj-94",
					"maxclass" : "live.button",
					"numinlets" : 1,
					"numoutlets" : 1,
					"outlettype" : [ "" ],
					"parameter_enable" : 1,
					"patching_rect" : [ 491.0, 198.0, 26.0, 26.0 ],
					"presentation" : 1,
					"presentation_rect" : [ 131.698898, 90.969757, 9.857803, 9.729032 ],
					"saved_attribute_attributes" : 					{
						"valueof" : 						{
							"parameter_longname" : "Re-Trigger",
							"parameter_shortname" : "Re-Trigger",
							"parameter_type" : 2,
							"parameter_mmax" : 1.0,
							"parameter_enum" : [ "off", "on" ],
							"parameter_annotation_name" : "Re-Trigger"
						}

					}
,
					"varname" : "re-trigger"
				}

			}
, 			{
				"box" : 				{
					"fontname" : "Arial",
					"fontsize" : 12.0,
					"id" : "obj-5",
					"maxclass" : "message",
					"numinlets" : 2,
					"numoutlets" : 1,
					"outlettype" : [ "" ],
					"patching_rect" : [ 640.0, 648.40979, 43.0, 22.0 ],
					"style" : "",
					"text" : "fsaa 1"
				}

			}
, 			{
				"box" : 				{
					"activedialcolor" : [ 0.278431, 0.839216, 1.0, 1.0 ],
					"activeneedlecolor" : [ 1.0, 1.0, 1.0, 0.4 ],
					"annotation" : "Rate - the base rate of the LFO expressed as a note value.",
					"bordercolor" : [ 1.0, 1.0, 1.0, 0.2 ],
					"focusbordercolor" : [ 1.0, 1.0, 1.0, 0.2 ],
					"hidden" : 1,
					"id" : "obj-58",
					"maxclass" : "live.dial",
					"needlecolor" : [ 0.321569, 0.321569, 0.321569, 0.6 ],
					"numinlets" : 1,
					"numoutlets" : 2,
					"outlettype" : [ "", "float" ],
					"parameter_enable" : 1,
					"patching_rect" : [ 417.0, 233.5, 44.0, 47.0 ],
					"presentation" : 1,
					"presentation_rect" : [ 0.0, 90.969757, 44.0, 47.0 ],
					"prototypename" : "M4L.dial.tiny",
					"saved_attribute_attributes" : 					{
						"valueof" : 						{
							"parameter_longname" : "SyncRate",
							"parameter_shortname" : "Rate",
							"parameter_type" : 2,
							"parameter_enum" : [ "1/48", "1/32", "1/24", "1/16", "1/12", "1/8", "1/6", "1/4", "1/3", "1/2", "1", "2", "3", "4", "6", "8", "16" ],
							"parameter_initial" : [ 1.0 ],
							"parameter_unitstyle" : 0,
							"parameter_speedlim" : 0.0,
							"parameter_annotation_name" : "SyncRate"
						}

					}
,
					"textcolor" : [ 1.0, 1.0, 1.0, 0.6 ],
					"varname" : "SyncRate"
				}

			}
, 			{
				"box" : 				{
					"activebgcolor" : [ 0.184314, 0.211765, 0.223529, 0.0 ],
					"annotation" : "Shape of the LFO waveform. Available Waveforms are: Sine, Saw Up,Saw Down, Triangle, Square, Random, Binary Noise",
					"bordercolor" : [ 1.0, 1.0, 1.0, 0.2 ],
					"focusbordercolor" : [ 0.572549, 0.615686, 0.658824, 1.0 ],
					"hltcolor" : [ 0.556863, 0.556863, 0.556863, 1.0 ],
					"id" : "obj-79",
					"maxclass" : "live.menu",
					"numinlets" : 1,
					"numoutlets" : 3,
					"outlettype" : [ "", "", "float" ],
					"parameter_enable" : 1,
					"patching_rect" : [ 87.0, 335.0, 128.274719, 15.0 ],
					"presentation" : 1,
					"presentation_rect" : [ 46.841095, 72.366463, 92.115211, 15.0 ],
					"saved_attribute_attributes" : 					{
						"valueof" : 						{
							"parameter_longname" : "Shape",
							"parameter_shortname" : "Shape",
							"parameter_type" : 2,
							"parameter_enum" : [ "sine", "up", "down", "triangle", "rect", "random", "bin" ],
							"parameter_annotation_name" : "Shape"
						}

					}
,
					"textcolor" : [ 0.278431, 0.839216, 1.0, 1.0 ],
					"varname" : "live.menu[1]"
				}

			}
, 			{
				"box" : 				{
					"fontname" : "Arial Bold",
					"fontsize" : 10.0,
					"id" : "obj-60",
					"maxclass" : "newobj",
					"numinlets" : 1,
					"numoutlets" : 1,
					"outlettype" : [ "float" ],
					"patching_rect" : [ 343.0, 306.0, 30.0, 20.0 ],
					"style" : "",
					"text" : "t f"
				}

			}
, 			{
				"box" : 				{
					"fontname" : "Arial Bold",
					"fontsize" : 10.0,
					"id" : "obj-71",
					"maxclass" : "newobj",
					"numinlets" : 1,
					"numoutlets" : 2,
					"outlettype" : [ "", "" ],
					"patcher" : 					{
						"fileversion" : 1,
						"appversion" : 						{
							"major" : 7,
							"minor" : 2,
							"revision" : 3,
							"architecture" : "x86",
							"modernui" : 1
						}
,
						"rect" : [ 21.0, 44.0, 382.0, 263.0 ],
						"bglocked" : 0,
						"openinpresentation" : 0,
						"default_fontsize" : 10.0,
						"default_fontface" : 0,
						"default_fontname" : "Arial",
						"gridonopen" : 1,
						"gridsize" : [ 15.0, 15.0 ],
						"gridsnaponopen" : 1,
						"objectsnaponopen" : 1,
						"statusbarvisible" : 2,
						"toolbarvisible" : 1,
						"lefttoolbarpinned" : 0,
						"toptoolbarpinned" : 0,
						"righttoolbarpinned" : 0,
						"bottomtoolbarpinned" : 0,
						"toolbars_unpinned_last_save" : 0,
						"tallnewobj" : 0,
						"boxanimatetime" : 200,
						"enablehscroll" : 1,
						"enablevscroll" : 1,
						"devicewidth" : 0.0,
						"description" : "",
						"digest" : "",
						"tags" : "",
						"style" : "",
						"subpatcher_template" : "",
						"boxes" : [ 							{
								"box" : 								{
									"fontname" : "Arial Bold",
									"fontsize" : 10.0,
									"id" : "obj-13",
									"maxclass" : "message",
									"numinlets" : 2,
									"numoutlets" : 1,
									"outlettype" : [ "" ],
									"patching_rect" : [ 81.0, 150.0, 22.5, 16.0 ],
									"style" : "",
									"text" : "40"
								}

							}
, 							{
								"box" : 								{
									"fontname" : "Arial Bold",
									"fontsize" : 10.0,
									"id" : "obj-8",
									"maxclass" : "message",
									"numinlets" : 2,
									"numoutlets" : 1,
									"outlettype" : [ "" ],
									"patching_rect" : [ 41.0, 150.0, 24.5, 16.0 ],
									"style" : "",
									"text" : "30"
								}

							}
, 							{
								"box" : 								{
									"fontname" : "Arial Bold",
									"fontsize" : 10.0,
									"id" : "obj-7",
									"maxclass" : "message",
									"numinlets" : 2,
									"numoutlets" : 1,
									"outlettype" : [ "" ],
									"patching_rect" : [ 132.0, 150.0, 24.0, 16.0 ],
									"style" : "",
									"text" : "50"
								}

							}
, 							{
								"box" : 								{
									"fontname" : "Arial Bold",
									"fontsize" : 10.0,
									"id" : "obj-6",
									"maxclass" : "newobj",
									"numinlets" : 3,
									"numoutlets" : 2,
									"outlettype" : [ "int", "int" ],
									"patching_rect" : [ 81.0, 122.0, 70.0, 18.0 ],
									"style" : "",
									"text" : "split 101 500"
								}

							}
, 							{
								"box" : 								{
									"fontname" : "Arial Bold",
									"fontsize" : 10.0,
									"id" : "obj-5",
									"maxclass" : "newobj",
									"numinlets" : 3,
									"numoutlets" : 2,
									"outlettype" : [ "int", "int" ],
									"patching_rect" : [ 41.0, 94.0, 59.0, 18.0 ],
									"style" : "",
									"text" : "split 0 100"
								}

							}
, 							{
								"box" : 								{
									"fontname" : "Arial Bold",
									"fontsize" : 10.0,
									"id" : "obj-117",
									"maxclass" : "message",
									"numinlets" : 2,
									"numoutlets" : 1,
									"outlettype" : [ "" ],
									"patching_rect" : [ 231.0, 150.0, 27.0, 16.0 ],
									"style" : "",
									"text" : "800"
								}

							}
, 							{
								"box" : 								{
									"fontname" : "Arial Bold",
									"fontsize" : 10.0,
									"id" : "obj-112",
									"maxclass" : "message",
									"numinlets" : 2,
									"numoutlets" : 1,
									"outlettype" : [ "" ],
									"patching_rect" : [ 281.5, 150.0, 33.0, 16.0 ],
									"style" : "",
									"text" : "1000"
								}

							}
, 							{
								"box" : 								{
									"fontname" : "Arial Bold",
									"fontsize" : 10.0,
									"id" : "obj-111",
									"maxclass" : "newobj",
									"numinlets" : 3,
									"numoutlets" : 2,
									"outlettype" : [ "int", "int" ],
									"patching_rect" : [ 231.0, 122.0, 70.0, 18.0 ],
									"style" : "",
									"text" : "split 401 500"
								}

							}
, 							{
								"box" : 								{
									"fontname" : "Arial Bold",
									"fontsize" : 10.0,
									"id" : "obj-110",
									"maxclass" : "message",
									"numinlets" : 2,
									"numoutlets" : 1,
									"outlettype" : [ "" ],
									"patching_rect" : [ 182.0, 150.0, 33.0, 16.0 ],
									"style" : "",
									"text" : "1000"
								}

							}
, 							{
								"box" : 								{
									"fontname" : "Arial Bold",
									"fontsize" : 10.0,
									"id" : "obj-109",
									"maxclass" : "newobj",
									"numinlets" : 3,
									"numoutlets" : 2,
									"outlettype" : [ "int", "int" ],
									"patching_rect" : [ 182.0, 94.0, 68.0, 18.0 ],
									"style" : "",
									"text" : "split 0 400"
								}

							}
, 							{
								"box" : 								{
									"fontname" : "Arial Bold",
									"fontsize" : 10.0,
									"id" : "obj-26",
									"maxclass" : "newobj",
									"numinlets" : 2,
									"numoutlets" : 1,
									"outlettype" : [ "float" ],
									"patching_rect" : [ 40.5, 44.0, 44.0, 18.0 ],
									"style" : "",
									"text" : "!/ 1000."
								}

							}
, 							{
								"box" : 								{
									"comment" : "",
									"id" : "obj-11",
									"maxclass" : "inlet",
									"numinlets" : 0,
									"numoutlets" : 1,
									"outlettype" : [ "float" ],
									"patching_rect" : [ 40.5, 14.0, 18.0, 18.0 ],
									"style" : ""
								}

							}
, 							{
								"box" : 								{
									"comment" : "",
									"id" : "obj-66",
									"maxclass" : "outlet",
									"numinlets" : 1,
									"numoutlets" : 0,
									"patching_rect" : [ 81.0, 205.0, 20.0, 20.0 ],
									"style" : ""
								}

							}
, 							{
								"box" : 								{
									"comment" : "",
									"id" : "obj-70",
									"maxclass" : "outlet",
									"numinlets" : 1,
									"numoutlets" : 0,
									"patching_rect" : [ 182.0, 205.0, 20.0, 20.0 ],
									"style" : ""
								}

							}
 ],
						"lines" : [ 							{
								"patchline" : 								{
									"destination" : [ "obj-110", 0 ],
									"disabled" : 0,
									"hidden" : 0,
									"source" : [ "obj-109", 0 ]
								}

							}
, 							{
								"patchline" : 								{
									"destination" : [ "obj-111", 0 ],
									"disabled" : 0,
									"hidden" : 0,
									"source" : [ "obj-109", 1 ]
								}

							}
, 							{
								"patchline" : 								{
									"destination" : [ "obj-26", 0 ],
									"disabled" : 0,
									"hidden" : 0,
									"source" : [ "obj-11", 0 ]
								}

							}
, 							{
								"patchline" : 								{
									"destination" : [ "obj-70", 0 ],
									"disabled" : 0,
									"hidden" : 0,
									"source" : [ "obj-110", 0 ]
								}

							}
, 							{
								"patchline" : 								{
									"destination" : [ "obj-112", 0 ],
									"disabled" : 0,
									"hidden" : 0,
									"source" : [ "obj-111", 1 ]
								}

							}
, 							{
								"patchline" : 								{
									"destination" : [ "obj-117", 0 ],
									"disabled" : 0,
									"hidden" : 0,
									"source" : [ "obj-111", 0 ]
								}

							}
, 							{
								"patchline" : 								{
									"destination" : [ "obj-70", 0 ],
									"disabled" : 0,
									"hidden" : 0,
									"source" : [ "obj-112", 0 ]
								}

							}
, 							{
								"patchline" : 								{
									"destination" : [ "obj-70", 0 ],
									"disabled" : 0,
									"hidden" : 0,
									"source" : [ "obj-117", 0 ]
								}

							}
, 							{
								"patchline" : 								{
									"destination" : [ "obj-66", 0 ],
									"disabled" : 0,
									"hidden" : 0,
									"source" : [ "obj-13", 0 ]
								}

							}
, 							{
								"patchline" : 								{
									"destination" : [ "obj-109", 0 ],
									"disabled" : 0,
									"hidden" : 0,
									"midpoints" : [ 50.0, 83.0, 191.5, 83.0 ],
									"source" : [ "obj-26", 0 ]
								}

							}
, 							{
								"patchline" : 								{
									"destination" : [ "obj-5", 0 ],
									"disabled" : 0,
									"hidden" : 0,
									"source" : [ "obj-26", 0 ]
								}

							}
, 							{
								"patchline" : 								{
									"destination" : [ "obj-6", 0 ],
									"disabled" : 0,
									"hidden" : 0,
									"source" : [ "obj-5", 1 ]
								}

							}
, 							{
								"patchline" : 								{
									"destination" : [ "obj-8", 0 ],
									"disabled" : 0,
									"hidden" : 0,
									"source" : [ "obj-5", 0 ]
								}

							}
, 							{
								"patchline" : 								{
									"destination" : [ "obj-13", 0 ],
									"disabled" : 0,
									"hidden" : 0,
									"source" : [ "obj-6", 0 ]
								}

							}
, 							{
								"patchline" : 								{
									"destination" : [ "obj-7", 0 ],
									"disabled" : 0,
									"hidden" : 0,
									"source" : [ "obj-6", 1 ]
								}

							}
, 							{
								"patchline" : 								{
									"destination" : [ "obj-66", 0 ],
									"disabled" : 0,
									"hidden" : 0,
									"source" : [ "obj-7", 0 ]
								}

							}
, 							{
								"patchline" : 								{
									"destination" : [ "obj-66", 0 ],
									"disabled" : 0,
									"hidden" : 0,
									"source" : [ "obj-8", 0 ]
								}

							}
 ]
					}
,
					"patching_rect" : [ 121.0, 865.0, 80.0, 20.0 ],
					"saved_object_attributes" : 					{
						"description" : "",
						"digest" : "",
						"fontsize" : 10.0,
						"globalpatchername" : "",
						"style" : "",
						"tags" : ""
					}
,
					"style" : "",
					"text" : "p scale"
				}

			}
, 			{
				"box" : 				{
					"fontname" : "Arial",
					"fontsize" : 10.0,
					"id" : "obj-28",
					"maxclass" : "comment",
					"numinlets" : 1,
					"numoutlets" : 0,
					"patching_rect" : [ 213.0, 134.0, 133.0, 18.0 ],
					"style" : "",
					"text" : "Sync Logic/Phase Trigger >"
				}

			}
, 			{
				"box" : 				{
					"fontname" : "Arial Bold",
					"fontsize" : 10.0,
					"id" : "obj-45",
					"maxclass" : "newobj",
					"numinlets" : 1,
					"numoutlets" : 1,
					"outlettype" : [ "" ],
					"patcher" : 					{
						"fileversion" : 1,
						"appversion" : 						{
							"major" : 7,
							"minor" : 2,
							"revision" : 3,
							"architecture" : "x86",
							"modernui" : 1
						}
,
						"rect" : [ 42.0, 85.0, 258.0, 185.0 ],
						"bglocked" : 0,
						"openinpresentation" : 0,
						"default_fontsize" : 10.0,
						"default_fontface" : 0,
						"default_fontname" : "Arial Bold",
						"gridonopen" : 1,
						"gridsize" : [ 8.0, 8.0 ],
						"gridsnaponopen" : 1,
						"objectsnaponopen" : 1,
						"statusbarvisible" : 2,
						"toolbarvisible" : 1,
						"lefttoolbarpinned" : 0,
						"toptoolbarpinned" : 0,
						"righttoolbarpinned" : 0,
						"bottomtoolbarpinned" : 0,
						"toolbars_unpinned_last_save" : 0,
						"tallnewobj" : 0,
						"boxanimatetime" : 200,
						"enablehscroll" : 1,
						"enablevscroll" : 1,
						"devicewidth" : 0.0,
						"description" : "",
						"digest" : "",
						"tags" : "",
						"style" : "",
						"subpatcher_template" : "",
						"boxes" : [ 							{
								"box" : 								{
									"fontname" : "Arial Bold",
									"fontsize" : 10.0,
									"id" : "obj-66",
									"maxclass" : "newobj",
									"numinlets" : 1,
									"numoutlets" : 1,
									"outlettype" : [ "" ],
									"patcher" : 									{
										"fileversion" : 1,
										"appversion" : 										{
											"major" : 7,
											"minor" : 2,
											"revision" : 3,
											"architecture" : "x86",
											"modernui" : 1
										}
,
										"rect" : [ 617.0, 303.0, 714.0, 514.0 ],
										"bglocked" : 0,
										"openinpresentation" : 0,
										"default_fontsize" : 10.0,
										"default_fontface" : 0,
										"default_fontname" : "Arial Bold",
										"gridonopen" : 1,
										"gridsize" : [ 15.0, 15.0 ],
										"gridsnaponopen" : 1,
										"objectsnaponopen" : 1,
										"statusbarvisible" : 2,
										"toolbarvisible" : 1,
										"lefttoolbarpinned" : 0,
										"toptoolbarpinned" : 0,
										"righttoolbarpinned" : 0,
										"bottomtoolbarpinned" : 0,
										"toolbars_unpinned_last_save" : 0,
										"tallnewobj" : 0,
										"boxanimatetime" : 200,
										"enablehscroll" : 1,
										"enablevscroll" : 1,
										"devicewidth" : 0.0,
										"description" : "",
										"digest" : "",
										"tags" : "",
										"style" : "",
										"subpatcher_template" : "",
										"boxes" : [ 											{
												"box" : 												{
													"fontname" : "Arial Bold",
													"fontsize" : 10.0,
													"id" : "obj-1",
													"maxclass" : "message",
													"numinlets" : 2,
													"numoutlets" : 1,
													"outlettype" : [ "" ],
													"patching_rect" : [ 206.0, 246.0, 166.0, 20.0 ],
													"style" : "",
													"text" : "activebgoncolor 0.278 0.839 1. 1."
												}

											}
, 											{
												"box" : 												{
													"fontname" : "Arial Bold",
													"fontsize" : 10.0,
													"id" : "obj-8",
													"maxclass" : "newobj",
													"numinlets" : 3,
													"numoutlets" : 3,
													"outlettype" : [ "bang", "bang", "" ],
													"patching_rect" : [ 206.0, 168.0, 100.0, 20.0 ],
													"style" : "",
													"text" : "sel 0 1"
												}

											}
, 											{
												"box" : 												{
													"id" : "obj-6",
													"maxclass" : "toggle",
													"numinlets" : 1,
													"numoutlets" : 1,
													"outlettype" : [ "int" ],
													"parameter_enable" : 0,
													"patching_rect" : [ 206.0, 138.0, 20.0, 20.0 ],
													"style" : ""
												}

											}
, 											{
												"box" : 												{
													"fontname" : "Arial Bold",
													"fontsize" : 10.0,
													"id" : "obj-5",
													"maxclass" : "message",
													"numinlets" : 2,
													"numoutlets" : 1,
													"outlettype" : [ "" ],
													"patching_rect" : [ 246.5, 284.0, 171.0, 20.0 ],
													"style" : "",
													"text" : "activebgoncolor 0.278 0.839 1. 0.5"
												}

											}
, 											{
												"box" : 												{
													"fontname" : "Arial Bold",
													"fontsize" : 10.0,
													"id" : "obj-16",
													"maxclass" : "newobj",
													"numinlets" : 2,
													"numoutlets" : 1,
													"outlettype" : [ "bang" ],
													"patching_rect" : [ 206.0, 95.5, 64.0, 20.0 ],
													"style" : "",
													"text" : "qmetro 200"
												}

											}
, 											{
												"box" : 												{
													"comment" : "",
													"id" : "obj-60",
													"maxclass" : "inlet",
													"numinlets" : 0,
													"numoutlets" : 1,
													"outlettype" : [ "int" ],
													"patching_rect" : [ 206.0, 44.0, 20.0, 20.0 ],
													"style" : ""
												}

											}
, 											{
												"box" : 												{
													"comment" : "",
													"id" : "obj-61",
													"maxclass" : "outlet",
													"numinlets" : 1,
													"numoutlets" : 0,
													"patching_rect" : [ 206.0, 329.0, 20.0, 20.0 ],
													"style" : ""
												}

											}
 ],
										"lines" : [ 											{
												"patchline" : 												{
													"destination" : [ "obj-61", 0 ],
													"disabled" : 0,
													"hidden" : 0,
													"source" : [ "obj-1", 0 ]
												}

											}
, 											{
												"patchline" : 												{
													"destination" : [ "obj-6", 0 ],
													"disabled" : 0,
													"hidden" : 0,
													"source" : [ "obj-16", 0 ]
												}

											}
, 											{
												"patchline" : 												{
													"destination" : [ "obj-61", 0 ],
													"disabled" : 0,
													"hidden" : 0,
													"source" : [ "obj-5", 0 ]
												}

											}
, 											{
												"patchline" : 												{
													"destination" : [ "obj-8", 0 ],
													"disabled" : 0,
													"hidden" : 0,
													"source" : [ "obj-6", 0 ]
												}

											}
, 											{
												"patchline" : 												{
													"destination" : [ "obj-16", 0 ],
													"disabled" : 0,
													"hidden" : 0,
													"source" : [ "obj-60", 0 ]
												}

											}
, 											{
												"patchline" : 												{
													"destination" : [ "obj-6", 0 ],
													"disabled" : 0,
													"hidden" : 0,
													"midpoints" : [ 215.5, 82.0, 169.0, 82.0, 169.0, 125.0, 215.5, 125.0 ],
													"source" : [ "obj-60", 0 ]
												}

											}
, 											{
												"patchline" : 												{
													"destination" : [ "obj-1", 0 ],
													"disabled" : 0,
													"hidden" : 0,
													"source" : [ "obj-8", 0 ]
												}

											}
, 											{
												"patchline" : 												{
													"destination" : [ "obj-5", 0 ],
													"disabled" : 0,
													"hidden" : 0,
													"source" : [ "obj-8", 1 ]
												}

											}
 ]
									}
,
									"patching_rect" : [ 93.0, 91.0, 48.0, 20.0 ],
									"saved_object_attributes" : 									{
										"description" : "",
										"digest" : "",
										"fontname" : "Arial Bold",
										"fontsize" : 10.0,
										"globalpatchername" : "",
										"style" : "",
										"tags" : ""
									}
,
									"style" : "",
									"text" : "p Color"
								}

							}
, 							{
								"box" : 								{
									"comment" : "",
									"id" : "obj-56",
									"maxclass" : "outlet",
									"numinlets" : 1,
									"numoutlets" : 0,
									"patching_rect" : [ 93.0, 126.0, 18.0, 18.0 ],
									"prototypename" : "M4L.Arial10",
									"style" : ""
								}

							}
, 							{
								"box" : 								{
									"id" : "obj-34",
									"maxclass" : "toggle",
									"numinlets" : 1,
									"numoutlets" : 1,
									"outlettype" : [ "int" ],
									"parameter_enable" : 0,
									"patching_rect" : [ 93.0, 56.0, 18.0, 18.0 ],
									"style" : ""
								}

							}
, 							{
								"box" : 								{
									"comment" : "",
									"id" : "obj-27",
									"maxclass" : "inlet",
									"numinlets" : 0,
									"numoutlets" : 1,
									"outlettype" : [ "" ],
									"patching_rect" : [ 93.0, 33.0, 18.0, 18.0 ],
									"prototypename" : "M4L.Arial10",
									"style" : ""
								}

							}
 ],
						"lines" : [ 							{
								"patchline" : 								{
									"destination" : [ "obj-34", 0 ],
									"disabled" : 0,
									"hidden" : 0,
									"source" : [ "obj-27", 0 ]
								}

							}
, 							{
								"patchline" : 								{
									"destination" : [ "obj-66", 0 ],
									"disabled" : 0,
									"hidden" : 0,
									"midpoints" : [ 102.5, 91.0, 102.5, 91.0 ],
									"source" : [ "obj-34", 0 ]
								}

							}
, 							{
								"patchline" : 								{
									"destination" : [ "obj-56", 0 ],
									"disabled" : 0,
									"hidden" : 0,
									"source" : [ "obj-66", 0 ]
								}

							}
 ]
					}
,
					"patching_rect" : [ 109.5, 440.0, 44.0, 20.0 ],
					"saved_object_attributes" : 					{
						"description" : "",
						"digest" : "",
						"fontname" : "Arial Bold",
						"fontsize" : 10.0,
						"globalpatchername" : "",
						"style" : "",
						"tags" : ""
					}
,
					"style" : "",
					"text" : "p color"
				}

			}
, 			{
				"box" : 				{
					"activedialcolor" : [ 0.278431, 0.839216, 1.0, 1.0 ],
					"activeneedlecolor" : [ 1.0, 1.0, 1.0, 0.4 ],
					"annotation" : "Adds a random variation offset (jitter) to the current value. Values: 0 % - 100 %.",
					"appearance" : 1,
					"bordercolor" : [ 1.0, 1.0, 1.0, 0.2 ],
					"focusbordercolor" : [ 1.0, 1.0, 1.0, 0.2 ],
					"id" : "obj-73",
					"maxclass" : "live.dial",
					"needlecolor" : [ 0.321569, 0.321569, 0.321569, 0.6 ],
					"numinlets" : 1,
					"numoutlets" : 2,
					"outlettype" : [ "", "float" ],
					"parameter_enable" : 1,
					"patching_rect" : [ 462.5, 424.0, 47.0, 36.0 ],
					"presentation" : 1,
					"presentation_rect" : [ 147.446625, 90.969757, 47.0, 36.0 ],
					"prototypename" : "amount",
					"saved_attribute_attributes" : 					{
						"valueof" : 						{
							"parameter_longname" : "Jitter",
							"parameter_shortname" : "Jitter",
							"parameter_type" : 0,
							"parameter_mmax" : 1.0,
							"parameter_initial_enable" : 1,
							"parameter_initial" : [ 0.0 ],
							"parameter_unitstyle" : 1,
							"parameter_speedlim" : 0.0,
							"parameter_annotation_name" : "Jitter"
						}

					}
,
					"shownumber" : 0,
					"textcolor" : [ 1.0, 1.0, 1.0, 0.6 ],
					"varname" : "Jitter"
				}

			}
, 			{
				"box" : 				{
					"activedialcolor" : [ 0.278431, 0.839216, 1.0, 1.0 ],
					"activeneedlecolor" : [ 1.0, 1.0, 1.0, 0.4 ],
					"annotation" : "Smooths value changes (and jitter, as well). Values: 0ms - 200ms",
					"appearance" : 1,
					"bordercolor" : [ 1.0, 1.0, 1.0, 0.2 ],
					"focusbordercolor" : [ 1.0, 1.0, 1.0, 0.2 ],
					"id" : "obj-87",
					"maxclass" : "live.dial",
					"needlecolor" : [ 0.321569, 0.321569, 0.321569, 0.6 ],
					"numinlets" : 1,
					"numoutlets" : 2,
					"outlettype" : [ "", "float" ],
					"parameter_enable" : 1,
					"patching_rect" : [ 522.5, 424.0, 47.0, 36.0 ],
					"presentation" : 1,
					"presentation_rect" : [ 147.446625, 128.650879, 47.0, 36.0 ],
					"prototypename" : "time",
					"saved_attribute_attributes" : 					{
						"valueof" : 						{
							"parameter_linknames" : 1,
							"parameter_longname" : "Smooth",
							"parameter_shortname" : "Smooth",
							"parameter_type" : 0,
							"parameter_mmax" : 1.0,
							"parameter_initial_enable" : 1,
							"parameter_initial" : [ 0.0 ],
							"parameter_unitstyle" : 1,
							"parameter_speedlim" : 0.0,
							"parameter_annotation_name" : "Smooth"
						}

					}
,
					"shownumber" : 0,
					"textcolor" : [ 1.0, 1.0, 1.0, 0.6 ],
					"varname" : "Smooth"
				}

			}
, 			{
				"box" : 				{
					"activebgcolor" : [ 0.0, 0.0, 0.0, 0.0 ],
					"activebgoncolor" : [ 0.278, 0.839, 1.0, 1.0 ],
					"activetextcolor" : [ 1.0, 1.0, 1.0, 0.5 ],
					"activetextoncolor" : [ 0.094118, 0.117647, 0.137255, 1.0 ],
					"annotation" : "Momentary holds current output value.",
					"bgcolor" : [ 0.572549, 0.615686, 0.658824, 0.0 ],
					"bordercolor" : [ 1.0, 1.0, 1.0, 0.2 ],
					"focusbordercolor" : [ 0.278431, 0.839216, 1.0, 1.0 ],
					"id" : "obj-55",
					"maxclass" : "live.text",
					"numinlets" : 1,
					"numoutlets" : 2,
					"outlettype" : [ "", "" ],
					"parameter_enable" : 1,
					"patching_rect" : [ 155.5, 440.0, 40.0, 15.0 ],
					"presentation" : 1,
					"presentation_rect" : [ 143.450043, 72.366463, 40.781067, 15.0 ],
					"saved_attribute_attributes" : 					{
						"valueof" : 						{
							"parameter_linknames" : 1,
							"parameter_longname" : "Hold",
							"parameter_shortname" : "Hold",
							"parameter_type" : 2,
							"parameter_mmax" : 1.0,
							"parameter_enum" : [ "val1", "val2" ],
							"parameter_initial_enable" : 1,
							"parameter_initial" : [ 0.0 ],
							"parameter_annotation_name" : "Hold"
						}

					}
,
					"text" : "Hold",
					"texton" : "Hold",
					"varname" : "Hold"
				}

			}
, 			{
				"box" : 				{
					"activebgoncolor" : [ 1.0, 0.603922, 0.0, 1.0 ],
					"annotation" : "Inversion of the LFO Waveform Phase.",
					"automation" : "Invert",
					"automationon" : "Invert",
					"fontface" : 0,
					"hint" : "",
					"id" : "obj-57",
					"maxclass" : "live.text",
					"numinlets" : 1,
					"numoutlets" : 2,
					"outlettype" : [ "", "" ],
					"parameter_enable" : 1,
					"patching_rect" : [ 298.0, 435.0, 44.0, 19.0 ],
					"presentation" : 1,
					"presentation_rect" : [ 8.0, 145.650879, 44.0, 19.0 ],
					"saved_attribute_attributes" : 					{
						"valueof" : 						{
							"parameter_order" : 1,
							"parameter_longname" : "Invert",
							"parameter_shortname" : "Phase-Inversion",
							"parameter_type" : 2,
							"parameter_mmax" : 1.0,
							"parameter_enum" : [ "Invert", "Invert" ],
							"parameter_initial_enable" : 1,
							"parameter_initial" : [ 0.0 ],
							"parameter_speedlim" : 0.0,
							"parameter_invisible" : 2
						}

					}
,
					"text" : "Invert",
					"texton" : "Invert",
					"varname" : "Phase-Inversion"
				}

			}
, 			{
				"box" : 				{
					"activedialcolor" : [ 0.278431, 0.839216, 1.0, 1.0 ],
					"activeneedlecolor" : [ 1.0, 1.0, 1.0, 0.4 ],
					"annotation" : "Offset: This parameter takes over the value of the mapped parameter. This allows the LFO to modulate that value. ",
					"bordercolor" : [ 1.0, 1.0, 1.0, 0.2 ],
					"focusbordercolor" : [ 1.0, 1.0, 1.0, 0.2 ],
					"id" : "obj-120",
					"maxclass" : "live.dial",
					"needlecolor" : [ 0.321569, 0.321569, 0.321569, 0.6 ],
					"numinlets" : 1,
					"numoutlets" : 2,
					"outlettype" : [ "", "float" ],
					"parameter_enable" : 1,
					"patching_rect" : [ 530.83374, 648.40979, 44.0, 53.0 ],
					"presentation" : 1,
					"presentation_rect" : [ 0.0, 9.107513, 44.0, 53.0 ],
					"saved_attribute_attributes" : 					{
						"valueof" : 						{
							"parameter_longname" : "Offset",
							"parameter_shortname" : "Offset",
							"parameter_type" : 0,
							"parameter_mmin" : -1.0,
							"parameter_mmax" : 1.0,
							"parameter_initial_enable" : 1,
							"parameter_initial" : [ 0 ],
							"parameter_unitstyle" : 1,
							"parameter_speedlim" : 0.0,
							"parameter_annotation_name" : "Offset"
						}

					}
,
					"textcolor" : [ 1.0, 1.0, 1.0, 0.6 ],
					"triangle" : 1,
					"varname" : "Offset"
				}

			}
, 			{
				"box" : 				{
					"activedialcolor" : [ 0.278431, 0.839216, 1.0, 1.0 ],
					"activeneedlecolor" : [ 1.0, 1.0, 1.0, 0.4 ],
					"annotation" : "Depth of the LFO modulation. Values: 0 % - 100 %",
					"bordercolor" : [ 1.0, 1.0, 1.0, 0.2 ],
					"focusbordercolor" : [ 1.0, 1.0, 1.0, 0.2 ],
					"id" : "obj-99",
					"maxclass" : "live.dial",
					"needlecolor" : [ 0.321569, 0.321569, 0.321569, 0.6 ],
					"numinlets" : 1,
					"numoutlets" : 2,
					"outlettype" : [ "", "float" ],
					"parameter_enable" : 1,
					"patching_rect" : [ 578.5, 648.40979, 44.0, 47.0 ],
					"presentation" : 1,
					"presentation_rect" : [ 47.841095, 90.585442, 44.0, 47.0 ],
					"saved_attribute_attributes" : 					{
						"valueof" : 						{
							"parameter_longname" : "Depth",
							"parameter_shortname" : "Depth",
							"parameter_type" : 0,
							"parameter_mmax" : 100.0,
							"parameter_initial_enable" : 1,
							"parameter_initial" : [ 100 ],
							"parameter_unitstyle" : 5,
							"parameter_exponent" : 2.0,
							"parameter_speedlim" : 0.0,
							"parameter_annotation_name" : "Depth"
						}

					}
,
					"textcolor" : [ 1.0, 1.0, 1.0, 0.6 ],
					"varname" : "Depth"
				}

			}
, 			{
				"box" : 				{
					"activedialcolor" : [ 0.278431, 0.839216, 1.0, 1.0 ],
					"activeneedlecolor" : [ 1.0, 1.0, 1.0, 0.4 ],
					"annotation" : "Shifts the LFO phase. Values: -1 - +1",
					"bordercolor" : [ 1.0, 1.0, 1.0, 0.2 ],
					"focusbordercolor" : [ 1.0, 1.0, 1.0, 0.2 ],
					"id" : "obj-144",
					"maxclass" : "live.dial",
					"needlecolor" : [ 0.321569, 0.321569, 0.321569, 0.6 ],
					"numinlets" : 1,
					"numoutlets" : 2,
					"outlettype" : [ "", "float" ],
					"parameter_enable" : 1,
					"patching_rect" : [ 384.0, 407.0, 44.0, 47.0 ],
					"presentation" : 1,
					"presentation_rect" : [ 93.698898, 90.585442, 44.0, 47.0 ],
					"prototypename" : "amount",
					"saved_attribute_attributes" : 					{
						"valueof" : 						{
							"parameter_linknames" : 1,
							"parameter_longname" : "Phase",
							"parameter_shortname" : "Phase",
							"parameter_type" : 0,
							"parameter_mmin" : -1.0,
							"parameter_mmax" : 1.0,
							"parameter_initial_enable" : 1,
							"parameter_initial" : [ 0 ],
							"parameter_unitstyle" : 1,
							"parameter_speedlim" : 0.0,
							"parameter_annotation_name" : "Phase"
						}

					}
,
					"textcolor" : [ 1.0, 1.0, 1.0, 0.6 ],
					"varname" : "Phase"
				}

			}
, 			{
				"box" : 				{
					"fontname" : "Arial Bold",
					"fontsize" : 10.0,
					"id" : "obj-85",
					"maxclass" : "message",
					"numinlets" : 2,
					"numoutlets" : 1,
					"outlettype" : [ "" ],
					"patching_rect" : [ 491.0, 293.0, 32.5, 20.0 ],
					"style" : "",
					"text" : "0."
				}

			}
, 			{
				"box" : 				{
					"fontname" : "Arial Bold",
					"fontsize" : 10.0,
					"id" : "obj-86",
					"maxclass" : "newobj",
					"numinlets" : 1,
					"numoutlets" : 4,
					"outlettype" : [ "", "", "", "" ],
					"patcher" : 					{
						"fileversion" : 1,
						"appversion" : 						{
							"major" : 7,
							"minor" : 2,
							"revision" : 3,
							"architecture" : "x86",
							"modernui" : 1
						}
,
						"rect" : [ 788.0, 272.0, 440.0, 307.0 ],
						"bglocked" : 0,
						"openinpresentation" : 0,
						"default_fontsize" : 10.0,
						"default_fontface" : 0,
						"default_fontname" : "Arial Bold",
						"gridonopen" : 2,
						"gridsize" : [ 8.0, 8.0 ],
						"gridsnaponopen" : 1,
						"objectsnaponopen" : 1,
						"statusbarvisible" : 2,
						"toolbarvisible" : 1,
						"lefttoolbarpinned" : 0,
						"toptoolbarpinned" : 0,
						"righttoolbarpinned" : 0,
						"bottomtoolbarpinned" : 0,
						"toolbars_unpinned_last_save" : 0,
						"tallnewobj" : 0,
						"boxanimatetime" : 200,
						"enablehscroll" : 1,
						"enablevscroll" : 1,
						"devicewidth" : 0.0,
						"description" : "",
						"digest" : "",
						"tags" : "",
						"style" : "",
						"subpatcher_template" : "",
						"boxes" : [ 							{
								"box" : 								{
									"id" : "obj-5",
									"maxclass" : "toggle",
									"numinlets" : 1,
									"numoutlets" : 1,
									"outlettype" : [ "int" ],
									"parameter_enable" : 0,
									"patching_rect" : [ 256.0, 128.0, 18.0, 18.0 ],
									"style" : ""
								}

							}
, 							{
								"box" : 								{
									"fontname" : "Arial Bold",
									"fontsize" : 10.0,
									"id" : "obj-6",
									"maxclass" : "message",
									"numinlets" : 2,
									"numoutlets" : 1,
									"outlettype" : [ "" ],
									"patching_rect" : [ 289.0, 160.0, 57.0, 20.0 ],
									"style" : "",
									"text" : "hidden $1"
								}

							}
, 							{
								"box" : 								{
									"fontname" : "Arial Bold",
									"fontsize" : 10.0,
									"id" : "obj-4",
									"maxclass" : "newobj",
									"numinlets" : 2,
									"numoutlets" : 1,
									"outlettype" : [ "int" ],
									"patching_rect" : [ 96.0, 64.0, 32.5, 20.0 ],
									"style" : "",
									"text" : "== 0"
								}

							}
, 							{
								"box" : 								{
									"id" : "obj-9",
									"maxclass" : "toggle",
									"numinlets" : 1,
									"numoutlets" : 1,
									"outlettype" : [ "int" ],
									"parameter_enable" : 0,
									"patching_rect" : [ 96.0, 88.0, 18.0, 18.0 ],
									"style" : ""
								}

							}
, 							{
								"box" : 								{
									"fontname" : "Arial Bold",
									"fontsize" : 10.0,
									"id" : "obj-3",
									"maxclass" : "message",
									"numinlets" : 2,
									"numoutlets" : 1,
									"outlettype" : [ "" ],
									"patching_rect" : [ 96.0, 160.0, 57.0, 20.0 ],
									"style" : "",
									"text" : "hidden $1"
								}

							}
, 							{
								"box" : 								{
									"comment" : "",
									"id" : "obj-1",
									"maxclass" : "outlet",
									"numinlets" : 1,
									"numoutlets" : 0,
									"patching_rect" : [ 270.0, 232.0, 18.0, 18.0 ],
									"prototypename" : "M4L.Arial10",
									"style" : ""
								}

							}
, 							{
								"box" : 								{
									"comment" : "",
									"id" : "obj-52",
									"maxclass" : "outlet",
									"numinlets" : 1,
									"numoutlets" : 0,
									"patching_rect" : [ 229.0, 232.0, 18.0, 18.0 ],
									"prototypename" : "M4L.Arial10",
									"style" : ""
								}

							}
, 							{
								"box" : 								{
									"fontname" : "Arial Bold",
									"fontsize" : 10.0,
									"id" : "obj-2",
									"maxclass" : "comment",
									"numinlets" : 1,
									"numoutlets" : 0,
									"patching_rect" : [ 40.0, 15.0, 63.0, 18.0 ],
									"style" : "",
									"text" : "Time mode"
								}

							}
, 							{
								"box" : 								{
									"fontname" : "Arial",
									"fontsize" : 10.0,
									"id" : "obj-7",
									"maxclass" : "comment",
									"numinlets" : 1,
									"numoutlets" : 0,
									"patching_rect" : [ 56.0, 40.0, 24.0, 18.0 ],
									"style" : "",
									"text" : "1/0"
								}

							}
, 							{
								"box" : 								{
									"fontname" : "Arial Bold",
									"fontsize" : 10.0,
									"id" : "obj-14",
									"maxclass" : "newobj",
									"numinlets" : 2,
									"numoutlets" : 1,
									"outlettype" : [ "int" ],
									"patching_rect" : [ 176.0, 64.0, 32.5, 20.0 ],
									"style" : "",
									"text" : "== 0"
								}

							}
, 							{
								"box" : 								{
									"comment" : "",
									"id" : "obj-26",
									"maxclass" : "outlet",
									"numinlets" : 1,
									"numoutlets" : 0,
									"patching_rect" : [ 176.0, 240.0, 18.0, 18.0 ],
									"style" : ""
								}

							}
, 							{
								"box" : 								{
									"fontname" : "Arial Bold",
									"fontsize" : 10.0,
									"id" : "obj-29",
									"maxclass" : "message",
									"numinlets" : 2,
									"numoutlets" : 1,
									"outlettype" : [ "" ],
									"patching_rect" : [ 211.5, 160.0, 53.0, 20.0 ],
									"style" : "",
									"text" : "active $1"
								}

							}
, 							{
								"box" : 								{
									"id" : "obj-30",
									"maxclass" : "button",
									"numinlets" : 1,
									"numoutlets" : 1,
									"outlettype" : [ "bang" ],
									"patching_rect" : [ 176.0, 160.0, 18.0, 18.0 ],
									"style" : ""
								}

							}
, 							{
								"box" : 								{
									"fontname" : "Arial Bold",
									"fontsize" : 10.0,
									"id" : "obj-33",
									"maxclass" : "newobj",
									"numinlets" : 2,
									"numoutlets" : 2,
									"outlettype" : [ "bang", "" ],
									"patching_rect" : [ 176.0, 120.0, 47.0, 20.0 ],
									"style" : "",
									"text" : "select 1"
								}

							}
, 							{
								"box" : 								{
									"id" : "obj-36",
									"maxclass" : "toggle",
									"numinlets" : 1,
									"numoutlets" : 1,
									"outlettype" : [ "int" ],
									"parameter_enable" : 0,
									"patching_rect" : [ 176.0, 88.0, 18.0, 18.0 ],
									"style" : ""
								}

							}
, 							{
								"box" : 								{
									"comment" : "",
									"id" : "obj-25",
									"maxclass" : "outlet",
									"numinlets" : 1,
									"numoutlets" : 0,
									"patching_rect" : [ 16.0, 232.0, 18.0, 18.0 ],
									"style" : ""
								}

							}
, 							{
								"box" : 								{
									"fontname" : "Arial Bold",
									"fontsize" : 10.0,
									"id" : "obj-24",
									"maxclass" : "message",
									"numinlets" : 2,
									"numoutlets" : 1,
									"outlettype" : [ "" ],
									"patching_rect" : [ 40.0, 160.0, 53.0, 20.0 ],
									"style" : "",
									"text" : "active $1"
								}

							}
, 							{
								"box" : 								{
									"id" : "obj-21",
									"maxclass" : "button",
									"numinlets" : 1,
									"numoutlets" : 1,
									"outlettype" : [ "bang" ],
									"patching_rect" : [ 16.0, 160.0, 18.0, 18.0 ],
									"style" : ""
								}

							}
, 							{
								"box" : 								{
									"fontname" : "Arial Bold",
									"fontsize" : 10.0,
									"id" : "obj-19",
									"maxclass" : "newobj",
									"numinlets" : 2,
									"numoutlets" : 2,
									"outlettype" : [ "bang", "" ],
									"patching_rect" : [ 16.0, 120.0, 47.0, 20.0 ],
									"style" : "",
									"text" : "select 1"
								}

							}
, 							{
								"box" : 								{
									"id" : "obj-18",
									"maxclass" : "toggle",
									"numinlets" : 1,
									"numoutlets" : 1,
									"outlettype" : [ "int" ],
									"parameter_enable" : 0,
									"patching_rect" : [ 16.0, 80.0, 18.0, 18.0 ],
									"style" : ""
								}

							}
, 							{
								"box" : 								{
									"fontname" : "Arial Bold",
									"fontsize" : 10.0,
									"id" : "obj-15",
									"maxclass" : "number",
									"maximum" : 1,
									"minimum" : 0,
									"numinlets" : 1,
									"numoutlets" : 2,
									"outlettype" : [ "", "bang" ],
									"parameter_enable" : 0,
									"patching_rect" : [ 16.0, 39.0, 40.0, 20.0 ],
									"prototypename" : "Live",
									"style" : "",
									"triscale" : 0.75
								}

							}
, 							{
								"box" : 								{
									"comment" : "",
									"id" : "obj-17",
									"maxclass" : "inlet",
									"numinlets" : 0,
									"numoutlets" : 1,
									"outlettype" : [ "" ],
									"patching_rect" : [ 16.0, 8.0, 18.0, 18.0 ],
									"style" : ""
								}

							}
 ],
						"lines" : [ 							{
								"patchline" : 								{
									"destination" : [ "obj-36", 0 ],
									"disabled" : 0,
									"hidden" : 0,
									"source" : [ "obj-14", 0 ]
								}

							}
, 							{
								"patchline" : 								{
									"destination" : [ "obj-14", 0 ],
									"disabled" : 0,
									"hidden" : 0,
									"source" : [ "obj-15", 0 ]
								}

							}
, 							{
								"patchline" : 								{
									"destination" : [ "obj-18", 0 ],
									"disabled" : 0,
									"hidden" : 0,
									"source" : [ "obj-15", 0 ]
								}

							}
, 							{
								"patchline" : 								{
									"destination" : [ "obj-4", 0 ],
									"disabled" : 0,
									"hidden" : 0,
									"source" : [ "obj-15", 0 ]
								}

							}
, 							{
								"patchline" : 								{
									"destination" : [ "obj-5", 0 ],
									"disabled" : 0,
									"hidden" : 0,
									"midpoints" : [ 25.5, 58.0, 265.5, 58.0 ],
									"source" : [ "obj-15", 0 ]
								}

							}
, 							{
								"patchline" : 								{
									"destination" : [ "obj-15", 0 ],
									"disabled" : 0,
									"hidden" : 0,
									"source" : [ "obj-17", 0 ]
								}

							}
, 							{
								"patchline" : 								{
									"destination" : [ "obj-19", 0 ],
									"disabled" : 0,
									"hidden" : 0,
									"source" : [ "obj-18", 0 ]
								}

							}
, 							{
								"patchline" : 								{
									"destination" : [ "obj-24", 0 ],
									"disabled" : 0,
									"hidden" : 0,
									"source" : [ "obj-18", 0 ]
								}

							}
, 							{
								"patchline" : 								{
									"destination" : [ "obj-21", 0 ],
									"disabled" : 0,
									"hidden" : 0,
									"source" : [ "obj-19", 0 ]
								}

							}
, 							{
								"patchline" : 								{
									"destination" : [ "obj-25", 0 ],
									"disabled" : 0,
									"hidden" : 0,
									"source" : [ "obj-21", 0 ]
								}

							}
, 							{
								"patchline" : 								{
									"destination" : [ "obj-52", 0 ],
									"disabled" : 0,
									"hidden" : 0,
									"source" : [ "obj-21", 0 ]
								}

							}
, 							{
								"patchline" : 								{
									"destination" : [ "obj-1", 0 ],
									"disabled" : 0,
									"hidden" : 0,
									"source" : [ "obj-24", 0 ]
								}

							}
, 							{
								"patchline" : 								{
									"destination" : [ "obj-25", 0 ],
									"disabled" : 0,
									"hidden" : 0,
									"source" : [ "obj-24", 0 ]
								}

							}
, 							{
								"patchline" : 								{
									"destination" : [ "obj-52", 0 ],
									"disabled" : 0,
									"hidden" : 0,
									"source" : [ "obj-24", 0 ]
								}

							}
, 							{
								"patchline" : 								{
									"destination" : [ "obj-26", 0 ],
									"disabled" : 0,
									"hidden" : 0,
									"source" : [ "obj-29", 0 ]
								}

							}
, 							{
								"patchline" : 								{
									"destination" : [ "obj-25", 0 ],
									"disabled" : 0,
									"hidden" : 0,
									"source" : [ "obj-3", 0 ]
								}

							}
, 							{
								"patchline" : 								{
									"destination" : [ "obj-26", 0 ],
									"disabled" : 0,
									"hidden" : 0,
									"source" : [ "obj-30", 0 ]
								}

							}
, 							{
								"patchline" : 								{
									"destination" : [ "obj-30", 0 ],
									"disabled" : 0,
									"hidden" : 0,
									"source" : [ "obj-33", 0 ]
								}

							}
, 							{
								"patchline" : 								{
									"destination" : [ "obj-29", 0 ],
									"disabled" : 0,
									"hidden" : 0,
									"source" : [ "obj-36", 0 ]
								}

							}
, 							{
								"patchline" : 								{
									"destination" : [ "obj-33", 0 ],
									"disabled" : 0,
									"hidden" : 0,
									"source" : [ "obj-36", 0 ]
								}

							}
, 							{
								"patchline" : 								{
									"destination" : [ "obj-9", 0 ],
									"disabled" : 0,
									"hidden" : 0,
									"source" : [ "obj-4", 0 ]
								}

							}
, 							{
								"patchline" : 								{
									"destination" : [ "obj-6", 0 ],
									"disabled" : 0,
									"hidden" : 0,
									"source" : [ "obj-5", 0 ]
								}

							}
, 							{
								"patchline" : 								{
									"destination" : [ "obj-26", 0 ],
									"disabled" : 0,
									"hidden" : 0,
									"source" : [ "obj-6", 0 ]
								}

							}
, 							{
								"patchline" : 								{
									"destination" : [ "obj-3", 0 ],
									"disabled" : 0,
									"hidden" : 0,
									"source" : [ "obj-9", 0 ]
								}

							}
 ]
					}
,
					"patching_rect" : [ 343.0, 134.0, 167.0, 20.0 ],
					"saved_object_attributes" : 					{
						"description" : "",
						"digest" : "",
						"fontname" : "Arial Bold",
						"fontsize" : 10.0,
						"globalpatchername" : "",
						"style" : "",
						"tags" : ""
					}
,
					"style" : "",
					"text" : "p TimeMode"
				}

			}
, 			{
				"box" : 				{
					"activebgcolor" : [ 0.917647, 0.94902, 0.054902, 0.0 ],
					"activebgoncolor" : [ 0.278431, 0.839216, 1.0, 1.0 ],
					"activetextcolor" : [ 0.278431, 0.839216, 1.0, 1.0 ],
					"activetextoncolor" : [ 0.137255, 0.145098, 0.160784, 1.0 ],
					"annotation" : "Time mode: when Sync is selected, the LFO runs in sync with Live's transport. When in Freq mode, the LFO runs using its own internal clock. Synced rates are expressed in note values, and Frequency rates are expressed in Herz.",
					"automation" : "Sync",
					"automationon" : "Freq",
					"bgcolor" : [ 0.6, 0.6, 0.6, 0.0 ],
					"bordercolor" : [ 0.278431, 0.839216, 1.0, 1.0 ],
					"focusbordercolor" : [ 0.278431, 0.839216, 1.0, 1.0 ],
					"hint" : "",
					"id" : "obj-88",
					"maxclass" : "live.text",
					"numinlets" : 1,
					"numoutlets" : 2,
					"outlettype" : [ "", "" ],
					"parameter_enable" : 1,
					"patching_rect" : [ 562.0, 101.0, 35.0, 19.0 ],
					"presentation" : 1,
					"presentation_rect" : [ 8.0, 72.366463, 33.897038, 15.0 ],
					"saved_attribute_attributes" : 					{
						"valueof" : 						{
							"parameter_order" : 1,
							"parameter_longname" : "Time Mode",
							"parameter_shortname" : "Time Mode",
							"parameter_type" : 2,
							"parameter_mmax" : 1.0,
							"parameter_enum" : [ "Sync", "Freq" ],
							"parameter_initial_enable" : 1,
							"parameter_initial" : [ 1 ],
							"parameter_speedlim" : 0.0,
							"parameter_annotation_name" : "Time Mode"
						}

					}
,
					"text" : "Sync",
					"textcolor" : [ 0.556863, 0.556863, 0.556863, 1.0 ],
					"texton" : "Freq",
					"varname" : "TimeMode"
				}

			}
, 			{
				"box" : 				{
					"activedialcolor" : [ 0.278431, 0.839216, 1.0, 1.0 ],
					"activeneedlecolor" : [ 1.0, 1.0, 1.0, 0.4 ],
					"annotation" : "Rate - the base rate of the LFO expressed in Hz.",
					"bordercolor" : [ 1.0, 1.0, 1.0, 0.2 ],
					"focusbordercolor" : [ 1.0, 1.0, 1.0, 0.2 ],
					"id" : "obj-89",
					"maxclass" : "live.dial",
					"needlecolor" : [ 0.752941, 0.784314, 0.839216, 1.0 ],
					"numinlets" : 1,
					"numoutlets" : 2,
					"outlettype" : [ "", "float" ],
					"parameter_enable" : 1,
					"patching_rect" : [ 343.0, 233.5, 44.0, 47.0 ],
					"presentation" : 1,
					"presentation_rect" : [ 0.0, 90.585442, 44.0, 47.0 ],
					"prototypename" : "freq",
					"saved_attribute_attributes" : 					{
						"valueof" : 						{
							"parameter_longname" : "FreqRate",
							"parameter_shortname" : "Rate",
							"parameter_type" : 0,
							"parameter_mmax" : 40.0,
							"parameter_initial_enable" : 1,
							"parameter_initial" : [ 4 ],
							"parameter_unitstyle" : 3,
							"parameter_exponent" : 2.666666,
							"parameter_speedlim" : 0.0,
							"parameter_annotation_name" : "FreqRate"
						}

					}
,
					"textcolor" : [ 1.0, 1.0, 1.0, 0.6 ],
					"varname" : "FreqRate"
				}

			}
, 			{
				"box" : 				{
					"angle" : 0.0,
					"bgcolor" : [ 0.137255, 0.145098, 0.160784, 0.4 ],
					"bordercolor" : [ 0.0, 0.019608, 0.078431, 0.0 ],
					"id" : "obj-10",
					"maxclass" : "panel",
					"mode" : 0,
					"numinlets" : 1,
					"numoutlets" : 0,
					"patching_rect" : [ 640.0, 347.5, 131.0, 162.0 ],
					"presentation" : 1,
					"presentation_rect" : [ 0.0, 0.404396, 194.446625, 171.924133 ],
					"proportion" : 0.39,
					"rounded" : 10,
					"style" : ""
				}

			}
 ],
		"lines" : [ 			{
				"patchline" : 				{
					"destination" : [ "obj-17", 0 ],
					"disabled" : 0,
					"hidden" : 0,
					"source" : [ "obj-1", 0 ]
				}

			}
, 			{
				"patchline" : 				{
					"destination" : [ "obj-100", 0 ],
					"disabled" : 0,
					"hidden" : 0,
					"source" : [ "obj-101", 2 ]
				}

			}
, 			{
				"patchline" : 				{
					"destination" : [ "obj-100", 0 ],
					"disabled" : 0,
					"hidden" : 0,
					"source" : [ "obj-101", 0 ]
				}

			}
, 			{
				"patchline" : 				{
					"destination" : [ "obj-64", 0 ],
					"disabled" : 0,
					"hidden" : 0,
					"source" : [ "obj-101", 1 ]
				}

			}
, 			{
				"patchline" : 				{
					"destination" : [ "obj-31", 0 ],
					"disabled" : 0,
					"hidden" : 0,
					"source" : [ "obj-11", 0 ]
				}

			}
, 			{
				"patchline" : 				{
					"destination" : [ "obj-120", 0 ],
					"disabled" : 0,
					"hidden" : 0,
					"source" : [ "obj-12", 0 ]
				}

			}
, 			{
				"patchline" : 				{
					"destination" : [ "obj-99", 0 ],
					"disabled" : 0,
					"hidden" : 0,
					"source" : [ "obj-12", 0 ]
				}

			}
, 			{
				"patchline" : 				{
					"destination" : [ "obj-13", 0 ],
					"disabled" : 0,
					"hidden" : 0,
					"midpoints" : [ 565.33374, 783.0, 69.5, 783.0 ],
					"source" : [ "obj-120", 1 ]
				}

			}
, 			{
				"patchline" : 				{
					"destination" : [ "obj-2", 0 ],
					"disabled" : 0,
					"hidden" : 0,
					"midpoints" : [ 565.33374, 711.0, 504.0, 711.0, 504.0, 615.0, 52.272888, 615.0 ],
					"source" : [ "obj-120", 1 ]
				}

			}
, 			{
				"patchline" : 				{
					"destination" : [ "obj-4", 0 ],
					"disabled" : 0,
					"hidden" : 0,
					"source" : [ "obj-13", 0 ]
				}

			}
, 			{
				"patchline" : 				{
					"destination" : [ "obj-17", 0 ],
					"disabled" : 0,
					"hidden" : 0,
					"source" : [ "obj-14", 0 ]
				}

			}
, 			{
				"patchline" : 				{
					"destination" : [ "obj-2", 7 ],
					"disabled" : 0,
					"hidden" : 0,
					"midpoints" : [ 418.5, 535.0, 302.3638, 535.0 ],
					"source" : [ "obj-144", 1 ]
				}

			}
, 			{
				"patchline" : 				{
					"destination" : [ "obj-58", 0 ],
					"disabled" : 0,
					"hidden" : 0,
					"source" : [ "obj-16", 0 ]
				}

			}
, 			{
				"patchline" : 				{
					"destination" : [ "obj-16", 0 ],
					"disabled" : 0,
					"hidden" : 0,
					"source" : [ "obj-19", 1 ]
				}

			}
, 			{
				"patchline" : 				{
					"destination" : [ "obj-89", 0 ],
					"disabled" : 0,
					"hidden" : 0,
					"source" : [ "obj-19", 0 ]
				}

			}
, 			{
				"patchline" : 				{
					"destination" : [ "obj-34", 0 ],
					"disabled" : 0,
					"hidden" : 0,
					"source" : [ "obj-2", 0 ]
				}

			}
, 			{
				"patchline" : 				{
					"destination" : [ "obj-71", 0 ],
					"disabled" : 0,
					"hidden" : 0,
					"source" : [ "obj-23", 0 ]
				}

			}
, 			{
				"patchline" : 				{
					"destination" : [ "obj-71", 0 ],
					"disabled" : 0,
					"hidden" : 0,
					"source" : [ "obj-31", 0 ]
				}

			}
, 			{
				"patchline" : 				{
					"destination" : [ "obj-13", 2 ],
					"disabled" : 0,
					"hidden" : 0,
					"source" : [ "obj-36", 0 ]
				}

			}
, 			{
				"patchline" : 				{
					"destination" : [ "obj-64", 0 ],
					"disabled" : 0,
					"hidden" : 0,
					"source" : [ "obj-4", 0 ]
				}

			}
, 			{
				"patchline" : 				{
					"destination" : [ "obj-55", 0 ],
					"disabled" : 0,
					"hidden" : 0,
					"midpoints" : [ 119.0, 462.0, 96.0, 462.0, 96.0, 426.0, 165.0, 426.0 ],
					"source" : [ "obj-45", 0 ]
				}

			}
, 			{
				"patchline" : 				{
					"destination" : [ "obj-102", 0 ],
					"disabled" : 0,
					"hidden" : 0,
					"source" : [ "obj-5", 0 ]
				}

			}
, 			{
				"patchline" : 				{
					"destination" : [ "obj-2", 3 ],
					"disabled" : 0,
					"hidden" : 0,
					"midpoints" : [ 165.0, 503.0, 159.454712, 503.0 ],
					"source" : [ "obj-55", 0 ]
				}

			}
, 			{
				"patchline" : 				{
					"destination" : [ "obj-45", 0 ],
					"disabled" : 0,
					"hidden" : 0,
					"midpoints" : [ 165.0, 471.0, 96.0, 471.0, 96.0, 435.0, 119.0, 435.0 ],
					"source" : [ "obj-55", 0 ]
				}

			}
, 			{
				"patchline" : 				{
					"destination" : [ "obj-2", 11 ],
					"disabled" : 0,
					"hidden" : 0,
					"midpoints" : [ 307.5, 550.0, 445.272888, 550.0 ],
					"source" : [ "obj-57", 0 ]
				}

			}
, 			{
				"patchline" : 				{
					"destination" : [ "obj-2", 5 ],
					"disabled" : 0,
					"hidden" : 0,
					"midpoints" : [ 426.5, 365.0, 230.909256, 365.0 ],
					"source" : [ "obj-58", 0 ]
				}

			}
, 			{
				"patchline" : 				{
					"destination" : [ "obj-1", 0 ],
					"disabled" : 0,
					"hidden" : 0,
					"source" : [ "obj-6", 0 ]
				}

			}
, 			{
				"patchline" : 				{
					"destination" : [ "obj-2", 4 ],
					"disabled" : 0,
					"hidden" : 0,
					"midpoints" : [ 352.5, 476.0, 207.0, 476.0, 207.0, 496.0, 195.181976, 496.0 ],
					"source" : [ "obj-60", 0 ]
				}

			}
, 			{
				"patchline" : 				{
					"destination" : [ "obj-14", 0 ],
					"disabled" : 0,
					"hidden" : 0,
					"source" : [ "obj-64", 0 ]
				}

			}
, 			{
				"patchline" : 				{
					"destination" : [ "obj-101", 0 ],
					"disabled" : 0,
					"hidden" : 0,
					"source" : [ "obj-66", 0 ]
				}

			}
, 			{
				"patchline" : 				{
					"destination" : [ "obj-66", 1 ],
					"disabled" : 0,
					"hidden" : 0,
					"source" : [ "obj-71", 0 ]
				}

			}
, 			{
				"patchline" : 				{
					"destination" : [ "obj-84", 0 ],
					"disabled" : 0,
					"hidden" : 0,
					"source" : [ "obj-71", 1 ]
				}

			}
, 			{
				"patchline" : 				{
					"destination" : [ "obj-2", 9 ],
					"disabled" : 0,
					"hidden" : 0,
					"midpoints" : [ 472.0, 577.0, 373.818329, 577.0 ],
					"source" : [ "obj-73", 0 ]
				}

			}
, 			{
				"patchline" : 				{
					"destination" : [ "obj-2", 2 ],
					"disabled" : 0,
					"hidden" : 0,
					"midpoints" : [ 96.5, 503.0, 123.727432, 503.0 ],
					"source" : [ "obj-79", 0 ]
				}

			}
, 			{
				"patchline" : 				{
					"destination" : [ "obj-5", 0 ],
					"disabled" : 0,
					"hidden" : 0,
					"source" : [ "obj-8", 0 ]
				}

			}
, 			{
				"patchline" : 				{
					"destination" : [ "obj-64", 0 ],
					"disabled" : 0,
					"hidden" : 0,
					"source" : [ "obj-84", 0 ]
				}

			}
, 			{
				"patchline" : 				{
					"destination" : [ "obj-2", 8 ],
					"disabled" : 0,
					"hidden" : 0,
					"midpoints" : [ 500.5, 379.0, 354.0, 379.0, 354.0, 562.0, 338.091064, 562.0 ],
					"source" : [ "obj-85", 0 ]
				}

			}
, 			{
				"patchline" : 				{
					"destination" : [ "obj-58", 0 ],
					"disabled" : 0,
					"hidden" : 0,
					"source" : [ "obj-86", 1 ]
				}

			}
, 			{
				"patchline" : 				{
					"destination" : [ "obj-85", 0 ],
					"disabled" : 0,
					"hidden" : 0,
					"source" : [ "obj-86", 2 ]
				}

			}
, 			{
				"patchline" : 				{
					"destination" : [ "obj-89", 0 ],
					"disabled" : 0,
					"hidden" : 0,
					"source" : [ "obj-86", 0 ]
				}

			}
, 			{
				"patchline" : 				{
					"destination" : [ "obj-94", 0 ],
					"disabled" : 0,
					"hidden" : 0,
					"source" : [ "obj-86", 3 ]
				}

			}
, 			{
				"patchline" : 				{
					"destination" : [ "obj-2", 10 ],
					"disabled" : 0,
					"hidden" : 0,
					"midpoints" : [ 532.0, 591.0, 409.545624, 591.0 ],
					"source" : [ "obj-87", 0 ]
				}

			}
, 			{
				"patchline" : 				{
					"destination" : [ "obj-19", 0 ],
					"disabled" : 0,
					"hidden" : 0,
					"midpoints" : [ 571.5, 165.0, 369.5, 165.0 ],
					"source" : [ "obj-88", 0 ]
				}

			}
, 			{
				"patchline" : 				{
					"destination" : [ "obj-2", 1 ],
					"disabled" : 0,
					"hidden" : 0,
					"midpoints" : [ 571.5, 393.0, 88.00016, 393.0 ],
					"source" : [ "obj-88", 0 ]
				}

			}
, 			{
				"patchline" : 				{
					"destination" : [ "obj-86", 0 ],
					"disabled" : 0,
					"hidden" : 0,
					"midpoints" : [ 571.5, 126.5, 352.5, 126.5 ],
					"source" : [ "obj-88", 0 ]
				}

			}
, 			{
				"patchline" : 				{
					"destination" : [ "obj-23", 0 ],
					"disabled" : 0,
					"hidden" : 0,
					"midpoints" : [ 352.5, 291.0, 252.0, 291.0, 252.0, 783.0, 130.5, 783.0 ],
					"source" : [ "obj-89", 0 ]
				}

			}
, 			{
				"patchline" : 				{
					"destination" : [ "obj-60", 0 ],
					"disabled" : 0,
					"hidden" : 0,
					"source" : [ "obj-89", 0 ]
				}

			}
, 			{
				"patchline" : 				{
					"destination" : [ "obj-25", 0 ],
					"disabled" : 0,
					"hidden" : 0,
					"source" : [ "obj-9", 0 ]
				}

			}
, 			{
				"patchline" : 				{
					"destination" : [ "obj-85", 0 ],
					"disabled" : 0,
					"hidden" : 0,
					"source" : [ "obj-94", 0 ]
				}

			}
, 			{
				"patchline" : 				{
					"destination" : [ "obj-13", 1 ],
					"disabled" : 0,
					"hidden" : 0,
					"midpoints" : [ 613.0, 783.0, 130.5, 783.0 ],
					"source" : [ "obj-99", 1 ]
				}

			}
, 			{
				"patchline" : 				{
					"destination" : [ "obj-2", 6 ],
					"disabled" : 0,
					"hidden" : 0,
					"midpoints" : [ 613.0, 711.0, 504.0, 711.0, 504.0, 590.0, 266.636536, 590.0 ],
					"source" : [ "obj-99", 1 ]
				}

			}
 ],
		"parameters" : 		{
			"obj-144" : [ "Phase", "Phase", 0 ],
			"obj-58" : [ "SyncRate", "Rate", 0 ],
			"obj-94" : [ "Re-Trigger", "Re-Trigger", 0 ],
			"obj-73" : [ "Jitter", "Jitter", 0 ],
			"obj-87" : [ "Smooth", "Smooth", 0 ],
			"obj-120" : [ "Offset", "Offset", 0 ],
			"obj-57" : [ "Invert", "Phase-Inversion", 1 ],
			"obj-89" : [ "FreqRate", "Rate", 0 ],
			"obj-99" : [ "Depth", "Depth", 0 ],
			"obj-79" : [ "Shape", "Shape", 0 ],
			"obj-88" : [ "Time Mode", "Time Mode", 1 ],
			"obj-55" : [ "Hold", "Hold", 0 ]
		}
,
		"dependency_cache" : [ 			{
				"name" : "jit.pass.mxe",
				"type" : "iLaF"
			}
 ],
		"autosave" : 0
	}

}
